<?xml version="1.0" encoding="UTF-8"?>
<svg version="1.1" xmlns="http://www.w3.org/2000/svg" width="48" height="48">
<path d="M0 0 C1.65 0 3.3 0 5 0 C5.33 0.99 5.66 1.98 6 3 C8.32671865 4.01529541 10.6603447 5.01488198 13 6 C15.1519437 9.22791555 15.20086443 10.28400809 15 14 C12.36 14 9.72 14 7 14 C6.67 12.68 6.34 11.36 6 10 C3.69 10 1.38 10 -1 10 C-1 11.65 -1 13.3 -1 15 C-0.40832031 15.18175781 0.18335938 15.36351562 0.79296875 15.55078125 C6.19849988 17.27032215 10.90926049 18.90926049 15 23 C15.56064323 26.05698097 15.53262312 28.94013454 15 32 C12.4600728 34.97534329 11.08396638 35.90364743 7.1875 36.25 C6.465625 36.1675 5.74375 36.085 5 36 C5 37.32 5 38.64 5 40 C3.35 40 1.7 40 0 40 C-0.495 38.515 -0.495 38.515 -1 37 C-3.31979381 35.96898053 -5.65429915 34.97063483 -8 34 C-9.9375 32.6875 -9.9375 32.6875 -11 31 C-11.1875 27.8125 -11.1875 27.8125 -11 25 C-8.69 25 -6.38 25 -4 25 C-3.34 26.65 -2.68 28.3 -2 30 C0.64 30 3.28 30 6 30 C6 28.35 6 26.7 6 25 C5.41992188 24.82984375 4.83984375 24.6596875 4.2421875 24.484375 C-1.11022749 22.82388982 -5.94983457 21.05016543 -10 17 C-10.43344451 13.94731226 -10.48035797 11.04760448 -10 8 C-7.18969572 4.87743969 -4.94876898 3.98719224 -1 3 C-0.67 2.01 -0.34 1.02 0 0 Z " fill="#42CD20" transform="translate(22,4)"/>
</svg>
